<svg width="200" height="200" viewBox="0 0 200 200" fill="none" xmlns="http://www.w3.org/2000/svg">
  <rect width="200" height="200" fill="#F3F4F6"/>
  <path d="M80 60C80 60 90 50 100 50C110 50 120 60 120 60C120 60 130 70 130 80C130 90 120 100 120 100C120 100 110 110 100 110C90 110 80 100 80 100C80 100 70 90 70 80C70 70 80 60 80 60Z" fill="#FCD34D"/>
  <path d="M80 60C80 60 90 50 100 50C110 50 120 60 120 60C120 60 130 70 130 80C130 90 120 100 120 100C120 100 110 110 100 110C90 110 80 100 80 100C80 100 70 90 70 80C70 70 80 60 80 60Z" stroke="#F59E0B" stroke-width="2" fill="none"/>
  <text x="100" y="180" text-anchor="middle" font-family="Arial, sans-serif" font-size="16" fill="#374151">Bananas</text>
</svg>
